<svg width="35" height="35" viewBox="0 0 50 50" fill="none" xmlns="http://www.w3.org/2000/svg">
<path d="M35.4166 6.25C35.9638 5.70282 36.6134 5.26878 37.3283 4.97265C38.0432 4.67652 38.8095 4.52411 39.5833 4.52411C40.3571 4.52411 41.1234 4.67652 41.8383 4.97265C42.5532 5.26878 43.2028 5.70282 43.75 6.25C44.2971 6.79717 44.7312 7.44676 45.0273 8.16168C45.3234 8.8766 45.4759 9.64284 45.4759 10.4167C45.4759 11.1905 45.3234 11.9567 45.0273 12.6716C44.7312 13.3866 44.2971 14.0362 43.75 14.5833L15.625 42.7083L4.16663 45.8333L7.29163 34.375L35.4166 6.25Z" stroke="#F7DD45" stroke-width="2" stroke-linecap="round" stroke-linejoin="round"/>
</svg>
